<svg xmlns="http://www.w3.org/2000/svg" xmlns:xlink="http://www.w3.org/1999/xlink" version="1.1" width="256" height="256" viewBox="0 0 256 256" xml:space="preserve">

<defs>
</defs>
<g style="stroke: none; stroke-width: 0; stroke-dasharray: none; stroke-linecap: butt; stroke-linejoin: miter; stroke-miterlimit: 10; fill: none; fill-rule: nonzero; opacity: 1;" transform="translate(1.4065934065934016 1.4065934065934016) scale(2.81 2.81)" >
	<path d="M 1 76.688 V 22.813 c 0 -1.799 1.459 -3.258 3.258 -3.258 H 7.05 c 2.623 0 4.75 -2.127 4.75 -4.75 v 0 c 0 -2.623 2.127 -4.75 4.75 -4.75 h 23.015 c 1.772 0 3.396 0.986 4.214 2.558 l 2.282 4.385 c 0.818 1.572 2.442 2.558 4.214 2.558 h 35.467 c 1.799 0 3.258 1.459 3.258 3.258 v 19.928 v 33.947 c 0 1.799 -1.459 3.258 -3.258 3.258 H 4.258 C 2.459 79.946 1 78.487 1 76.688 z" style="stroke: none; stroke-width: 1; stroke-dasharray: none; stroke-linecap: butt; stroke-linejoin: miter; stroke-miterlimit: 10; fill: rgb(255,204,62); fill-rule: nonzero; opacity: 1;" transform=" matrix(1 0 0 1 0 0) " stroke-linecap="round" />
	<path d="M 85.742 80.945 H 4.258 C 1.91 80.945 0 79.035 0 76.688 V 22.813 c 0 -2.348 1.91 -4.258 4.258 -4.258 H 7.05 c 2.068 0 3.75 -1.682 3.75 -3.75 c 0 -3.171 2.58 -5.75 5.75 -5.75 h 23.016 c 2.152 0 4.107 1.187 5.101 3.096 l 2.281 4.386 c 0.648 1.246 1.923 2.019 3.327 2.019 h 35.467 c 2.348 0 4.258 1.91 4.258 4.258 v 53.875 C 90 79.035 88.09 80.945 85.742 80.945 z M 4.258 20.555 C 3.013 20.555 2 21.567 2 22.813 v 53.875 c 0 1.245 1.013 2.258 2.258 2.258 h 81.484 c 1.245 0 2.258 -1.013 2.258 -2.258 V 22.813 c 0 -1.245 -1.013 -2.258 -2.258 -2.258 H 50.275 c -2.153 0 -4.107 -1.187 -5.101 -3.096 l -2.282 -4.385 c -0.648 -1.245 -1.923 -2.019 -3.327 -2.019 H 16.55 c -2.068 0 -3.75 1.683 -3.75 3.75 c 0 3.17 -2.58 5.75 -5.75 5.75 H 4.258 z" style="stroke: none; stroke-width: 1; stroke-dasharray: none; stroke-linecap: butt; stroke-linejoin: miter; stroke-miterlimit: 10; fill: rgb(0,0,0); fill-rule: nonzero; opacity: 1;" transform=" matrix(1 0 0 1 0 0) " stroke-linecap="round" />
	<path d="M 28.089 64.72 h -16.2 c -0.552 0 -1 -0.447 -1 -1 s 0.448 -1 1 -1 h 16.2 c 0.552 0 1 0.447 1 1 S 28.642 64.72 28.089 64.72 z" style="stroke: none; stroke-width: 1; stroke-dasharray: none; stroke-linecap: butt; stroke-linejoin: miter; stroke-miterlimit: 10; fill: rgb(0,0,0); fill-rule: nonzero; opacity: 1;" transform=" matrix(1 0 0 1 0 0) " stroke-linecap="round" />
	<path d="M 40.218 71.997 H 11.89 c -0.552 0 -1 -0.447 -1 -1 s 0.448 -1 1 -1 h 28.329 c 0.552 0 1 0.447 1 1 S 40.771 71.997 40.218 71.997 z" style="stroke: none; stroke-width: 1; stroke-dasharray: none; stroke-linecap: butt; stroke-linejoin: miter; stroke-miterlimit: 10; fill: rgb(0,0,0); fill-rule: nonzero; opacity: 1;" transform=" matrix(1 0 0 1 0 0) " stroke-linecap="round" />
</g>
</svg>